<?xml version="1.0" encoding="utf-8"?>
<svg xmlns="http://www.w3.org/2000/svg"
	xmlns:xlink="http://www.w3.org/1999/xlink"
	width="9px" height="12px" viewBox="0 0 9 12">
<path fillRule="evenodd" d="M 4.94 5.99C 4.94 5.99 1.06 2.1 1.06 2.1 0.67 1.71 0.67 1.08 1.06 0.69 1.06 0.69 1.41 0.34 1.41 0.34 1.8-0.05 2.44-0.05 2.83 0.34 2.83 0.34 7.4 4.91 7.4 4.91 7.41 4.92 7.42 4.92 7.42 4.93 7.42 4.93 7.78 5.28 7.78 5.28 7.97 5.48 8.07 5.73 8.07 5.99 8.07 6.25 7.97 6.5 7.78 6.7 7.78 6.7 7.42 7.05 7.42 7.05 7.42 7.06 7.41 7.06 7.4 7.07 7.4 7.07 2.83 11.64 2.83 11.64 2.44 12.03 1.8 12.03 1.41 11.64 1.41 11.64 1.06 11.29 1.06 11.29 0.67 10.9 0.67 10.27 1.06 9.87 1.06 9.87 4.94 5.99 4.94 5.99Z" fill="rgb(45,45,45)"/></svg>