<?xml version="1.0" encoding="utf-8"?>
<svg xmlns="http://www.w3.org/2000/svg"
	xmlns:xlink="http://www.w3.org/1999/xlink"
	width="14px" height="14px" viewBox="0 0 14 14">
<path fillRule="evenodd" d="M 13.68 12.28C 13.68 12.28 10.9 9.51 10.9 9.51 11.61 8.52 12.03 7.32 12.03 6.01 12.03 2.7 9.34 0.01 6.03 0.01 2.72 0.01 0.03 2.7 0.03 6.01 0.03 9.33 2.72 12.01 6.03 12.01 7.32 12.01 8.51 11.61 9.48 10.92 9.48 10.92 12.26 13.69 12.26 13.69 12.65 14.08 13.29 14.08 13.68 13.69 14.07 13.3 14.07 12.67 13.68 12.28ZM 6.03 10.01C 3.82 10.01 2.03 8.22 2.03 6.01 2.03 3.8 3.82 2.01 6.03 2.01 8.24 2.01 10.03 3.8 10.03 6.01 10.03 8.22 8.24 10.01 6.03 10.01Z" fill="rgb(125,125,125)"/></svg>