<?xml version="1.0" encoding="utf-8"?>
<svg xmlns="http://www.w3.org/2000/svg"
	xmlns:xlink="http://www.w3.org/1999/xlink"
	width="15px" height="15px" viewBox="0 0 15 15">
<path fillRule="evenodd" d="M 14 15C 14 15 9 15 9 15 8.45 15 8 14.55 8 14 8 14 8 9 8 9 8 8.45 8.45 8 9 8 9 8 14 8 14 8 14.55 8 15 8.45 15 9 15 9 15 14 15 14 15 14.55 14.55 15 14 15ZM 14 7C 14 7 9 7 9 7 8.45 7 8 6.55 8 6 8 6 8 1 8 1 8 0.45 8.45 0 9 0 9 0 14 0 14 0 14.55 0 15 0.45 15 1 15 1 15 6 15 6 15 6.55 14.55 7 14 7ZM 6 15C 6 15 1 15 1 15 0.45 15 0 14.55 0 14 0 14 0 9 0 9 0 8.45 0.45 8 1 8 1 8 6 8 6 8 6.55 8 7 8.45 7 9 7 9 7 14 7 14 7 14.55 6.55 15 6 15ZM 6 7C 6 7 1 7 1 7 0.45 7 0 6.55 0 6 0 6 0 1 0 1 0 0.45 0.45 0 1 0 1 0 6 0 6 0 6.55 0 7 0.45 7 1 7 1 7 6 7 6 7 6.55 6.55 7 6 7Z" fill="rgb(187,181,167)"/></svg>