<?xml version="1.0" encoding="utf-8"?>
<svg xmlns="http://www.w3.org/2000/svg"
	xmlns:xlink="http://www.w3.org/1999/xlink"
	width="16px" height="13px" viewBox="0 0 16 13">
<path fillRule="evenodd" d="M 15.95 2.32C 15.95 2.32 14.15 7.58 14.15 7.58 13.8 8.63 13.19 9.07 11.97 9.07 11.97 9.07 8.13 9.07 8.13 9.07 7.19 9.07 6.63 8.57 6.05 7.58 6.05 7.58 3.25 2.02 3.25 2.02 3.25 2.02 1 2.02 1 2.02 0.45 2.02 0 1.57 0 1.01 0 0.45 0.45 0 1 0 1 0 3.66 0 3.66 0 4.07 0 4.83 0.37 5.02 0.96 5.02 0.96 6.55 4.21 7.46 6.01 7.79 6.77 8.25 7.05 8.94 7.05 9.63 7.05 10.41 7.05 11.06 7.05 11.86 7.05 12.25 6.83 12.54 6.02 13.05 4.23 14.04 1.71 14.04 1.71 14.21 1.18 14.77 0.89 15.3 1.05 15.82 1.22 16.12 1.78 15.95 2.32ZM 15.3 1.05C 14.77 0.89 15.82 1.22 15.3 1.05ZM 7.5 10.18C 8.27 10.18 8.89 10.81 8.89 11.58 8.89 12.36 8.27 12.98 7.5 12.98 6.73 12.98 6.11 12.36 6.11 11.58 6.11 10.81 6.73 10.18 7.5 10.18ZM 12.5 10.15C 13.29 10.15 13.92 10.79 13.92 11.58 13.92 12.37 13.29 13.02 12.5 13.02 11.71 13.02 11.08 12.37 11.08 11.58 11.08 10.79 11.71 10.15 12.5 10.15Z" fill="rgb(109,109,109)"/></svg>