<?xml version="1.0" encoding="utf-8"?>
<svg xmlns="http://www.w3.org/2000/svg"
	xmlns:xlink="http://www.w3.org/1999/xlink"
	width="16px" height="16px" viewBox="0 0 16 16">
<path fillRule="evenodd" d="M 15.93 5.97C 15.79 5.56 15.43 5.26 15.01 5.19 15.01 5.19 10.85 4.55 10.85 4.55 10.85 4.55 9.04 0.68 9.04 0.68 8.85 0.27 8.45 0.01 8 0.01 7.55 0.01 7.15 0.27 6.96 0.68 6.96 0.68 5.15 4.55 5.15 4.55 5.15 4.55 0.99 5.19 0.99 5.19 0.57 5.26 0.21 5.56 0.07 5.97-0.06 6.38 0.04 6.84 0.34 7.15 0.34 7.15 3.39 10.29 3.39 10.29 3.39 10.29 2.68 14.64 2.68 14.64 2.61 15.08 2.79 15.52 3.15 15.78 3.35 15.92 3.59 15.99 3.82 15.99 4.01 15.99 4.2 15.94 4.38 15.84 4.38 15.84 8 13.83 8 13.83 8 13.83 11.62 15.84 11.62 15.84 11.8 15.94 11.99 15.99 12.18 15.99 12.41 15.99 12.65 15.92 12.85 15.78 13.21 15.52 13.39 15.08 13.32 14.64 13.32 14.64 12.61 10.29 12.61 10.29 12.61 10.29 15.66 7.15 15.66 7.15 15.96 6.84 16.06 6.38 15.93 5.97ZM 11.79 9.48C 11.53 9.74 11.42 10.11 11.48 10.47 11.48 10.47 12.18 14.83 12.18 14.83 12.18 14.83 8.56 12.81 8.56 12.81 8.38 12.72 8.19 12.67 8 12.67 7.81 12.67 7.62 12.72 7.44 12.81 7.44 12.81 3.82 14.83 3.82 14.83 3.82 14.83 4.53 10.47 4.53 10.47 4.58 10.11 4.47 9.74 4.21 9.48 4.21 9.48 1.17 6.34 1.17 6.34 1.17 6.34 5.32 5.7 5.32 5.7 5.7 5.64 6.03 5.39 6.19 5.05 6.19 5.05 8 1.17 8 1.17 8 1.17 9.81 5.05 9.81 5.05 9.97 5.39 10.3 5.64 10.68 5.7 10.68 5.7 14.83 6.34 14.83 6.34 14.83 6.34 11.79 9.48 11.79 9.48Z" fill="rgb(109,109,109)"/></svg>