<?xml version="1.0" encoding="utf-8"?>
<svg xmlns="http://www.w3.org/2000/svg"
	xmlns:xlink="http://www.w3.org/1999/xlink"
	width="16px" height="12px" viewBox="0 0 16 12">
<path fillRule="evenodd" d="M 15 7C 15 7 5 7 5 7 4.45 7 4 6.55 4 6 4 5.45 4.45 5 5 5 5 5 15 5 15 5 15.55 5 16 5.45 16 6 16 6.55 15.55 7 15 7ZM 15 2C 15 2 5 2 5 2 4.45 2 4 1.55 4 1 4 0.45 4.45 0 5 0 5 0 15 0 15 0 15.55 0 16 0.45 16 1 16 1.55 15.55 2 15 2ZM 1 12C 0.45 12 0 11.55 0 11 0 10.45 0.45 10 1 10 1.55 10 2 10.45 2 11 2 11.55 1.55 12 1 12ZM 1 7C 0.45 7 0 6.55 0 6 0 5.45 0.45 5 1 5 1.55 5 2 5.45 2 6 2 6.55 1.55 7 1 7ZM 1 2C 0.45 2 0 1.55 0 1 0 0.45 0.45 0 1 0 1.55 0 2 0.45 2 1 2 1.55 1.55 2 1 2ZM 5 10C 5 10 15 10 15 10 15.55 10 16 10.45 16 11 16 11.55 15.55 12 15 12 15 12 5 12 5 12 4.45 12 4 11.55 4 11 4 10.45 4.45 10 5 10Z" fill="rgb(187,181,167)"/></svg>